<svg width="247" height="56" fill="none" xmlns="http://www.w3.org/2000/svg">
  <path d="M84 2.24 65.858 56h-9.732L42.047 14.733 27.97 56h-9.827L0 2.24h9.449l13.984 42.118L37.984 2.24h8.599L60.85 44.642 75.118 2.24H84Z" fill="#8A8A8A"/>
  <path d="M57.713 42.69h-30.02L21.787 56h-9.35l25.59-56h9.45l25.688 56H63.52l-5.807-13.31Zm-3.347-7.59L42.752 8.676 31.039 35.1h23.327Z" fill="#8A8A8A"/>
  <path d="M116.152 9.368 111.544 23h-2.472l-3.576-10.464L101.92 23h-2.496L94.816 9.368h2.4l3.552 10.68 3.696-10.68h2.184l3.624 10.752 3.624-10.752h2.256Zm10.942 10.392h-7.32l-1.44 3.24h-2.28l6.24-13.632h2.304L130.862 23h-2.352l-1.416-3.24Zm-.816-1.848-2.832-6.432-2.856 6.432h5.688ZM142.292 23l-2.928-4.08a5.661 5.661 0 0 1-.624.024h-3.24V23h-2.328V9.368h5.568c1.808 0 3.232.424 4.272 1.272 1.04.848 1.56 2.024 1.56 3.528 0 1.04-.264 1.928-.792 2.664-.512.736-1.248 1.288-2.208 1.656l3.24 4.512h-2.52Zm-3.696-5.952c1.184 0 2.08-.248 2.688-.744.624-.496.936-1.208.936-2.136 0-.928-.312-1.64-.936-2.136-.608-.496-1.504-.744-2.688-.744H135.5v5.76h3.096Zm9.693-7.68h5.928c1.52 0 2.848.28 3.984.84 1.136.56 2.008 1.36 2.616 2.4.624 1.024.936 2.216.936 3.576 0 1.36-.312 2.56-.936 3.6-.608 1.024-1.48 1.816-2.616 2.376-1.136.56-2.464.84-3.984.84h-5.928V9.368Zm5.832 11.688c1.664 0 2.96-.432 3.888-1.296.928-.88 1.392-2.072 1.392-3.576 0-1.52-.464-2.712-1.392-3.576-.928-.88-2.224-1.32-3.888-1.32h-3.504v9.768h3.504ZM174.261 23l-2.928-4.08a5.661 5.661 0 0 1-.624.024h-3.24V23h-2.328V9.368h5.568c1.808 0 3.232.424 4.272 1.272 1.04.848 1.56 2.024 1.56 3.528 0 1.04-.264 1.928-.792 2.664-.512.736-1.248 1.288-2.208 1.656l3.24 4.512h-2.52Zm-3.696-5.952c1.184 0 2.08-.248 2.688-.744.624-.496.936-1.208.936-2.136 0-.928-.312-1.64-.936-2.136-.608-.496-1.504-.744-2.688-.744h-3.096v5.76h3.096Zm15.837 6.144c-1.392 0-2.656-.304-3.792-.912-1.136-.608-2.024-1.44-2.664-2.496-.64-1.072-.96-2.272-.96-3.6 0-1.328.32-2.52.96-3.576a6.739 6.739 0 0 1 2.664-2.52c1.136-.608 2.4-.912 3.792-.912 1.408 0 2.672.304 3.792.912a6.739 6.739 0 0 1 2.664 2.52c.64 1.056.96 2.248.96 3.576 0 1.328-.32 2.528-.96 3.6-.64 1.056-1.528 1.888-2.664 2.496-1.12.608-2.384.912-3.792.912Zm0-2.016c.96 0 1.824-.216 2.592-.648a4.683 4.683 0 0 0 1.8-1.776c.448-.752.672-1.608.672-2.568s-.224-1.816-.672-2.568a4.683 4.683 0 0 0-1.8-1.776c-.768-.432-1.632-.648-2.592-.648-.96 0-1.824.216-2.592.648a4.86 4.86 0 0 0-1.824 1.776c-.432.752-.648 1.608-.648 2.568s.216 1.816.648 2.568a4.86 4.86 0 0 0 1.824 1.776c.768.432 1.632.648 2.592.648Zm20.377-5.256c.816.224 1.44.624 1.872 1.2.448.576.672 1.304.672 2.184 0 1.184-.464 2.096-1.392 2.736-.912.64-2.248.96-4.008.96h-6.72V9.368h6.336c1.616 0 2.864.32 3.744.96.88.624 1.32 1.48 1.32 2.568 0 .704-.16 1.312-.48 1.824-.32.512-.768.912-1.344 1.2Zm-7.248-4.776v4.08h3.768c.944 0 1.672-.176 2.184-.528.528-.352.792-.856.792-1.512 0-.672-.256-1.176-.768-1.512-.512-.352-1.248-.528-2.208-.528h-3.768Zm4.272 10.08c2.112 0 3.168-.704 3.168-2.112 0-1.408-1.056-2.112-3.168-2.112h-4.272v4.224h4.272Zm19.069-.168V23h-10.224V9.368h9.96v1.92h-7.632v3.84h6.792v1.896h-6.792v4.032h7.896ZM101.728 51.192c-1.36 0-2.544-.24-3.552-.72-.992-.48-1.76-1.152-2.304-2.016-.528-.88-.792-1.912-.792-3.096 0-1.52.352-2.904 1.056-4.152a7.821 7.821 0 0 1 3-2.952c1.296-.72 2.776-1.08 4.44-1.08 1.168 0 2.2.192 3.096.576.896.384 1.584.936 2.064 1.656l-1.68 1.392a3.617 3.617 0 0 0-1.512-1.2c-.608-.288-1.328-.432-2.16-.432-1.2 0-2.256.272-3.168.816a5.485 5.485 0 0 0-2.064 2.208c-.48.928-.72 1.944-.72 3.048 0 1.216.392 2.176 1.176 2.88.8.688 1.904 1.032 3.312 1.032 1.616 0 2.952-.536 4.008-1.608l1.44 1.464a6.507 6.507 0 0 1-2.496 1.656c-.96.352-2.008.528-3.144.528Zm14.177 0c-1.36 0-2.536-.24-3.528-.72-.976-.496-1.728-1.184-2.256-2.064-.512-.88-.768-1.896-.768-3.048 0-1.52.352-2.904 1.056-4.152a7.65 7.65 0 0 1 2.976-2.952c1.28-.72 2.736-1.08 4.368-1.08 1.376 0 2.552.248 3.528.744.992.48 1.744 1.16 2.256 2.04.528.864.792 1.88.792 3.048 0 1.52-.352 2.904-1.056 4.152a7.65 7.65 0 0 1-2.976 2.952c-1.28.72-2.744 1.08-4.392 1.08Zm.192-2.016c1.184 0 2.216-.272 3.096-.816a5.526 5.526 0 0 0 2.064-2.184c.48-.928.72-1.944.72-3.048 0-1.2-.384-2.152-1.152-2.856-.768-.72-1.856-1.08-3.264-1.08-1.168 0-2.2.272-3.096.816a5.537 5.537 0 0 0-2.04 2.208c-.48.928-.72 1.944-.72 3.048 0 1.184.384 2.136 1.152 2.856.768.704 1.848 1.056 3.24 1.056Zm25.034-11.808L138.395 51h-1.92l-5.904-9.84-1.968 9.84h-2.328l2.736-13.632h1.92l5.904 9.84 1.968-9.84h2.328Zm6.173 13.824c-1.072 0-2.096-.144-3.072-.432-.96-.304-1.696-.68-2.208-1.128l.984-1.896c.544.464 1.224.832 2.04 1.104a8.37 8.37 0 0 0 2.52.384c1.04 0 1.864-.176 2.472-.528.624-.352.936-.864.936-1.536 0-.512-.24-.904-.72-1.176-.48-.272-1.208-.544-2.184-.816a24.806 24.806 0 0 1-2.16-.744 4.159 4.159 0 0 1-1.392-1.032c-.384-.464-.576-1.064-.576-1.8 0-1.36.536-2.432 1.608-3.216 1.072-.8 2.52-1.2 4.344-1.2.896 0 1.736.096 2.52.288.8.192 1.472.464 2.016.816l-.936 1.92c-.992-.704-2.24-1.056-3.744-1.056-1.056 0-1.904.192-2.544.576-.624.384-.936.904-.936 1.56 0 .528.232.92.696 1.176.48.256 1.216.528 2.208.816.88.256 1.592.504 2.136.744.56.224 1.032.56 1.416 1.008.4.448.6 1.04.6 1.776 0 .896-.256 1.68-.768 2.352-.496.656-1.2 1.16-2.112 1.512-.896.352-1.944.528-3.144.528Zm14.718 0c-1.68 0-2.984-.408-3.912-1.224-.928-.832-1.392-1.976-1.392-3.432 0-.464.048-.96.144-1.488l1.536-7.68h2.328L159.19 45a5.98 5.98 0 0 0-.144 1.248c0 .944.272 1.664.816 2.16.56.48 1.36.72 2.4.72 1.168 0 2.096-.328 2.784-.984.688-.656 1.176-1.696 1.464-3.12l1.536-7.656h2.28l-1.56 7.824c-.8 4-3.048 6-6.744 6Zm12.833-13.824h2.304l-2.352 11.688h7.32L181.743 51h-9.624l2.736-13.632Zm12.633 1.92h-4.656l.384-1.92h11.64l-.384 1.92h-4.656L187.464 51h-2.328l2.352-11.712Zm20.346-1.92c1.808 0 3.232.424 4.272 1.272 1.04.848 1.56 2.024 1.56 3.528 0 1.52-.52 2.704-1.56 3.552-1.04.848-2.464 1.272-4.272 1.272h-3.24V51h-2.328V37.368h5.568Zm-.144 7.68c1.184 0 2.08-.248 2.688-.744.624-.496.936-1.208.936-2.136 0-.928-.312-1.64-.936-2.136-.608-.496-1.504-.744-2.688-.744h-3.096v5.76h3.096ZM226.339 51l-2.928-4.08a5.661 5.661 0 0 1-.624.024h-3.24V51h-2.328V37.368h5.568c1.808 0 3.232.424 4.272 1.272 1.04.848 1.56 2.024 1.56 3.528 0 1.04-.264 1.928-.792 2.664-.512.736-1.248 1.288-2.208 1.656l3.24 4.512h-2.52Zm-3.696-5.952c1.184 0 2.08-.248 2.688-.744.624-.496.936-1.208.936-2.136 0-.928-.312-1.64-.936-2.136-.608-.496-1.504-.744-2.688-.744h-3.096v5.76h3.096Zm15.837 6.144c-1.392 0-2.656-.304-3.792-.912-1.136-.608-2.024-1.44-2.664-2.496-.64-1.072-.96-2.272-.96-3.6 0-1.328.32-2.52.96-3.576a6.739 6.739 0 0 1 2.664-2.52c1.136-.608 2.4-.912 3.792-.912 1.408 0 2.672.304 3.792.912a6.739 6.739 0 0 1 2.664 2.52c.64 1.056.96 2.248.96 3.576 0 1.328-.32 2.528-.96 3.6-.64 1.056-1.528 1.888-2.664 2.496-1.12.608-2.384.912-3.792.912Zm0-2.016c.96 0 1.824-.216 2.592-.648a4.683 4.683 0 0 0 1.8-1.776c.448-.752.672-1.608.672-2.568s-.224-1.816-.672-2.568a4.683 4.683 0 0 0-1.8-1.776c-.768-.432-1.632-.648-2.592-.648-.96 0-1.824.216-2.592.648a4.86 4.86 0 0 0-1.824 1.776c-.432.752-.648 1.608-.648 2.568s.216 1.816.648 2.568a4.86 4.86 0 0 0 1.824 1.776c.768.432 1.632.648 2.592.648Z" fill="#1E1E1E"/>
</svg>
