<svg width="277" height="56" fill="none" xmlns="http://www.w3.org/2000/svg">
  <path d="M22.152 23.368 17.544 37h-2.472l-3.576-10.464L7.92 37H5.424L.816 23.368h2.4l3.552 10.68 3.696-10.68h2.184l3.624 10.752 3.624-10.752h2.256ZM33.094 33.76h-7.32L24.334 37h-2.28l6.24-13.632h2.304L36.862 37H34.51l-1.416-3.24Zm-.816-1.848-2.832-6.432-2.856 6.432h5.688ZM48.292 37l-2.928-4.08a5.661 5.661 0 0 1-.624.024H41.5V37h-2.328V23.368h5.568c1.808 0 3.232.424 4.272 1.272 1.04.848 1.56 2.024 1.56 3.528 0 1.04-.264 1.928-.792 2.664-.512.736-1.248 1.288-2.208 1.656L50.812 37h-2.52Zm-3.696-5.952c1.184 0 2.08-.248 2.688-.744.624-.496.936-1.208.936-2.136 0-.928-.312-1.64-.936-2.136-.608-.496-1.504-.744-2.688-.744H41.5v5.76h3.096Zm9.693-7.68h5.928c1.52 0 2.848.28 3.984.84 1.136.56 2.008 1.36 2.616 2.4.624 1.024.936 2.216.936 3.576 0 1.36-.312 2.56-.936 3.6-.608 1.024-1.48 1.816-2.616 2.376-1.136.56-2.464.84-3.984.84h-5.928V23.368Zm5.832 11.688c1.664 0 2.96-.432 3.888-1.296.928-.88 1.392-2.072 1.392-3.576 0-1.52-.464-2.712-1.392-3.576-.928-.88-2.224-1.32-3.888-1.32h-3.504v9.768h3.504ZM80.26 37l-2.928-4.08a5.661 5.661 0 0 1-.624.024h-3.24V37H71.14V23.368h5.567c1.808 0 3.233.424 4.273 1.272 1.04.848 1.56 2.024 1.56 3.528 0 1.04-.264 1.928-.792 2.664-.512.736-1.248 1.288-2.209 1.656L82.78 37h-2.52Zm-3.697-5.952c1.185 0 2.08-.248 2.689-.744.623-.496.936-1.208.936-2.136 0-.928-.313-1.64-.936-2.136-.609-.496-1.504-.744-2.689-.744H73.47v5.76h3.096Zm15.838 6.144c-1.392 0-2.656-.304-3.792-.912-1.136-.608-2.024-1.44-2.664-2.496-.64-1.072-.96-2.272-.96-3.6 0-1.328.32-2.52.96-3.576a6.739 6.739 0 0 1 2.664-2.52c1.136-.608 2.4-.912 3.792-.912 1.408 0 2.672.304 3.792.912a6.739 6.739 0 0 1 2.664 2.52c.64 1.056.96 2.248.96 3.576 0 1.328-.32 2.528-.96 3.6-.64 1.056-1.528 1.888-2.664 2.496-1.12.608-2.384.912-3.792.912Zm0-2.016c.96 0 1.824-.216 2.592-.648a4.683 4.683 0 0 0 1.8-1.776c.448-.752.672-1.608.672-2.568s-.224-1.816-.672-2.568a4.683 4.683 0 0 0-1.8-1.776c-.768-.432-1.632-.648-2.592-.648-.96 0-1.824.216-2.592.648a4.86 4.86 0 0 0-1.824 1.776c-.432.752-.648 1.608-.648 2.568s.216 1.816.648 2.568a4.86 4.86 0 0 0 1.824 1.776c.768.432 1.632.648 2.592.648Zm20.377-5.256c.816.224 1.44.624 1.872 1.2.448.576.672 1.304.672 2.184 0 1.184-.464 2.096-1.392 2.736-.912.64-2.248.96-4.008.96h-6.72V23.368h6.336c1.616 0 2.864.32 3.744.96.88.624 1.32 1.48 1.32 2.568 0 .704-.16 1.312-.48 1.824-.32.512-.768.912-1.344 1.2Zm-7.248-4.776v4.08h3.768c.944 0 1.672-.176 2.184-.528.528-.352.792-.856.792-1.512 0-.672-.256-1.176-.768-1.512-.512-.352-1.248-.528-2.208-.528h-3.768Zm4.272 10.08c2.112 0 3.168-.704 3.168-2.112 0-1.408-1.056-2.112-3.168-2.112h-4.272v4.224h4.272Zm19.069-.168V37h-10.224V23.368h9.96v1.92h-7.632v3.84h6.792v1.896h-6.792v4.032h7.896Zm9.514 2.136c-1.392 0-2.656-.304-3.792-.912-1.12-.608-2-1.44-2.64-2.496-.64-1.072-.96-2.272-.96-3.6 0-1.328.32-2.52.96-3.576a6.78 6.78 0 0 1 2.64-2.52c1.136-.608 2.4-.912 3.792-.912 2.352 0 4.144.712 5.376 2.136l-1.489 1.512c-1.023-1.088-2.295-1.632-3.815-1.632-.976 0-1.856.216-2.64.648a4.633 4.633 0 0 0-1.824 1.776c-.432.752-.648 1.608-.648 2.568 0 .944.216 1.8.648 2.568a4.86 4.86 0 0 0 1.824 1.776c.784.432 1.664.648 2.64.648 1.504 0 2.776-.552 3.815-1.656l1.489 1.512c-1.248 1.44-3.04 2.16-5.376 2.16Zm14.297 0c-1.392 0-2.656-.304-3.792-.912-1.136-.608-2.024-1.44-2.664-2.496-.64-1.072-.96-2.272-.96-3.6 0-1.328.32-2.52.96-3.576a6.739 6.739 0 0 1 2.664-2.52c1.136-.608 2.4-.912 3.792-.912 1.408 0 2.672.304 3.792.912a6.739 6.739 0 0 1 2.664 2.52c.64 1.056.96 2.248.96 3.576 0 1.328-.32 2.528-.96 3.6-.64 1.056-1.528 1.888-2.664 2.496-1.12.608-2.384.912-3.792.912Zm0-2.016c.96 0 1.824-.216 2.592-.648a4.683 4.683 0 0 0 1.8-1.776c.448-.752.672-1.608.672-2.568s-.224-1.816-.672-2.568a4.683 4.683 0 0 0-1.8-1.776c-.768-.432-1.632-.648-2.592-.648-.96 0-1.824.216-2.592.648a4.86 4.86 0 0 0-1.824 1.776c-.432.752-.648 1.608-.648 2.568s.216 1.816.648 2.568a4.86 4.86 0 0 0 1.824 1.776c.768.432 1.632.648 2.592.648Zm22.921-11.808V37h-1.92l-7.872-9.624V37h-2.328V23.368h1.92l7.872 9.672v-9.672h2.328Zm8.646 13.824c-1.056 0-2.088-.144-3.096-.432-.992-.304-1.768-.704-2.328-1.2l.912-1.824c.544.448 1.224.808 2.04 1.08a8.213 8.213 0 0 0 2.568.408c1.072 0 1.856-.176 2.352-.528.512-.352.768-.808.768-1.368 0-.432-.152-.784-.456-1.056-.288-.272-.656-.48-1.104-.624a18.691 18.691 0 0 0-1.824-.456c-1.04-.224-1.888-.456-2.544-.696a4.193 4.193 0 0 1-1.656-1.128c-.448-.528-.672-1.24-.672-2.136 0-1.216.488-2.192 1.464-2.928.992-.752 2.336-1.128 4.032-1.128a9.88 9.88 0 0 1 2.496.312c.816.192 1.512.48 2.088.864l-.84 1.872c-1.04-.72-2.312-1.08-3.816-1.08-1.04 0-1.816.184-2.328.552-.512.352-.768.816-.768 1.392 0 .432.144.784.432 1.056.304.272.68.48 1.128.624.464.144 1.08.296 1.848.456 1.056.24 1.896.48 2.52.72.64.224 1.184.592 1.632 1.104.464.512.696 1.2.696 2.064 0 1.248-.496 2.24-1.488 2.976-.976.736-2.328 1.104-4.056 1.104Zm14.598 0c-1.872 0-3.336-.528-4.392-1.584-1.056-1.056-1.584-2.536-1.584-4.44v-7.8h2.328v7.752c0 1.328.312 2.336.936 3.024.624.688 1.536 1.032 2.736 1.032 1.184 0 2.088-.344 2.712-1.032.64-.688.96-1.696.96-3.024v-7.752h2.28v7.8c0 1.904-.528 3.384-1.584 4.44-1.056 1.056-2.52 1.584-4.392 1.584Zm10.48-13.824h2.328v11.688h7.32V37h-9.648V23.368Zm13.018 1.92h-4.656v-1.92h11.64v1.92h-4.656V37h-2.328V25.288Zm14.98-1.92c1.808 0 3.232.424 4.272 1.272 1.04.848 1.56 2.024 1.56 3.528 0 1.52-.52 2.704-1.56 3.552-1.04.848-2.464 1.272-4.272 1.272h-3.24V37h-2.328V23.368h5.568Zm-.144 7.68c1.184 0 2.08-.248 2.688-.744.624-.496.936-1.208.936-2.136 0-.928-.312-1.64-.936-2.136-.608-.496-1.504-.744-2.688-.744h-3.096v5.76h3.096ZM255.831 37l-2.928-4.08a5.661 5.661 0 0 1-.624.024h-3.24V37h-2.328V23.368h5.568c1.808 0 3.232.424 4.272 1.272 1.04.848 1.56 2.024 1.56 3.528 0 1.04-.264 1.928-.792 2.664-.512.736-1.248 1.288-2.208 1.656l3.24 4.512h-2.52Zm-3.696-5.952c1.184 0 2.08-.248 2.688-.744.624-.496.936-1.208.936-2.136 0-.928-.312-1.64-.936-2.136-.608-.496-1.504-.744-2.688-.744h-3.096v5.76h3.096Zm15.837 6.144c-1.392 0-2.656-.304-3.792-.912-1.136-.608-2.024-1.44-2.664-2.496-.64-1.072-.96-2.272-.96-3.6 0-1.328.32-2.52.96-3.576a6.739 6.739 0 0 1 2.664-2.52c1.136-.608 2.4-.912 3.792-.912 1.408 0 2.672.304 3.792.912a6.739 6.739 0 0 1 2.664 2.52c.64 1.056.96 2.248.96 3.576 0 1.328-.32 2.528-.96 3.6-.64 1.056-1.528 1.888-2.664 2.496-1.12.608-2.384.912-3.792.912Zm0-2.016c.96 0 1.824-.216 2.592-.648a4.683 4.683 0 0 0 1.8-1.776c.448-.752.672-1.608.672-2.568s-.224-1.816-.672-2.568a4.683 4.683 0 0 0-1.8-1.776c-.768-.432-1.632-.648-2.592-.648-.96 0-1.824.216-2.592.648a4.86 4.86 0 0 0-1.824 1.776c-.432.752-.648 1.608-.648 2.568s.216 1.816.648 2.568a4.86 4.86 0 0 0 1.824 1.776c.768.432 1.632.648 2.592.648Z" fill="#fff"/>
</svg>
