<svg width="50" height="50" fill="none" xmlns="http://www.w3.org/2000/svg">
  <g clip-path="url('#clip0_49_945')" fill="#4A4A4A">
    <path d="M47.222 25A22.221 22.221 0 1 0 2.78 25a22.221 22.221 0 0 0 44.443 0ZM5.556 25a19.444 19.444 0 1 1 38.888 0 19.444 19.444 0 0 1-38.889 0Z"/>
    <path d="m38.528 25.111-10.57-10.57A1.388 1.388 0 1 0 26 16.5l7.083 7.111H12.25a1.389 1.389 0 1 0 0 2.778h21.083L26 33.722a1.39 1.39 0 1 0 1.958 1.959l10.57-10.57Z"/>
  </g>
  <defs>
    <clipPath id="clip0_49_945">
      <path fill="#fff" transform="rotate(90 25 25)" d="M0 0h50v50H0z"/>
    </clipPath>
  </defs>
</svg>
